<svg width="123" height="30" viewBox="0 0 123 30" fill="none" xmlns="http://www.w3.org/2000/svg">
<path d="M41.2 24H44.56V17.448H45.184C45.4 17.952 45.592 18.312 45.832 18.672L49.408 24H53.368L48.664 17.136C51.208 16.584 52.696 14.952 52.696 12.288C52.696 9 50.392 7.152 46.624 7.176L41.2 7.2V24ZM44.56 14.424V10.224H46.432C48.256 10.224 49.288 10.968 49.288 12.312C49.288 13.68 48.256 14.424 46.432 14.424H44.56ZM54.1788 24H57.4188V17.16C57.4188 15 58.6428 14.064 60.0108 14.064C61.6188 14.064 62.6988 15 62.6988 17.16V24H65.9388V16.368C65.9388 13.224 63.8748 11.232 61.1868 11.232C59.3148 11.232 58.0908 11.904 57.4188 13.248V6.48H54.1788V24ZM68.4117 29.016C71.3397 29.016 72.8997 27.312 73.9557 24.792L79.4757 11.52H75.6357L73.2117 18.648C72.9957 19.248 72.8037 19.992 72.6837 20.64C72.5637 19.992 72.3717 19.248 72.1557 18.648L69.7317 11.52H65.8197L70.7637 23.424L70.5957 23.952C70.2357 25.056 69.4437 25.848 68.1957 25.848C67.6677 25.848 67.2117 25.8 66.7317 25.68L66.2517 28.776C66.8997 28.968 67.7637 29.016 68.4117 29.016ZM85.1568 24H86.9328V21.12H85.5888C84.9648 21.12 84.5808 20.76 84.5808 19.968V14.28H87.2208V11.52H84.5808V8.664L81.3408 9V11.52H79.5888V14.28H81.3408V20.136C81.3408 22.848 82.6848 24 85.1568 24ZM88.3038 24H91.5438V17.16C91.5438 15 92.7678 14.064 94.1358 14.064C95.7438 14.064 96.8238 15 96.8238 17.16V24H100.064V16.368C100.064 13.224 97.9998 11.232 95.3118 11.232C93.4398 11.232 92.2158 11.904 91.5438 13.248V6.48H88.3038V24ZM101.874 24H105.114V17.16C105.114 15 106.338 14.064 107.706 14.064C109.314 14.064 110.394 15 110.394 17.16V24H113.634V17.16C113.634 14.76 114.666 14.064 116.178 14.064C117.642 14.064 118.674 15 118.674 17.16V24H121.914V16.368C121.914 13.224 119.85 11.232 117.162 11.232C114.978 11.232 113.778 12.072 112.938 13.584C112.122 12.072 110.634 11.232 108.882 11.232C106.962 11.232 105.714 11.952 105.066 13.344V11.52H101.874V24Z" fill="#121212"/>
<path fill-rule="evenodd" clip-rule="evenodd" d="M14.1497 15.7262C13.7657 23.0669 7.59189 28.9146 0 29V1C7.59189 1.08547 13.7657 6.9331 14.1497 14.2738C14.5287 7.02987 20.5459 1.2399 28 1.0064V28.9937C20.5459 28.7602 14.5287 22.9702 14.1497 15.7262Z" fill="#FF6428"/>
</svg>
