<svg width="48" height="19" viewBox="0 0 48 19" fill="none" xmlns="http://www.w3.org/2000/svg">
<path fill-rule="evenodd" clip-rule="evenodd" d="M14.4487 5.71924C14.4487 5.71924 15.7657 3.98389 18.8237 4C21.8827 4.01611 24.7187 6.06299 24.6527 9.58594C24.6462 9.91113 24.6183 10.2217 24.5706 10.519C25.3888 8.31641 29.4299 8.01562 30.6368 8.00781C31.3467 8.00781 33.4768 8 33.4768 8C33.4878 6.56982 33.0348 5.61279 30.5548 5.56982C28.4407 5.53076 27.8977 6.58594 27.7698 7H25.1798C25.8398 3.60205 30.7228 4.01611 30.7228 4.01611C35.8093 4.21533 35.9344 6.83105 35.9932 8.06299L35.9998 8.19482V15L33.7458 15.0117L33.6448 13.1797C32.6838 14.3398 31.3908 14.9878 29.1208 15C26.911 15.0112 24.1041 14.0942 24.426 11.1797C23.7256 13.6719 21.4888 15 18.7727 15C15.5277 15 14.4177 13.2661 14.4177 13.2661L14.3157 15H11.9997V10H2.44074C2.44074 10 2.57774 13.3989 6.06974 13.4639C8.78474 13.5122 9.27674 11.6841 9.27674 11.6841L11.7847 11.6758C11.7847 11.6758 11.5187 15 6.05875 15C-0.293266 15 0.0037306 9.70312 0.0037306 9.70312C-0.0272447 8.52686 -0.00426483 4 5.99973 4C11.0243 4 11.8808 7.43018 11.9997 9.10352V0H14.4487V5.71924ZM14.4647 9.54297C14.4647 9.54297 14.4017 13.4771 18.2657 13.4302C22.1247 13.3828 22.1327 9.625 22.1327 9.625C22.1327 9.625 22.1907 5.47705 18.2577 5.57422C14.3247 5.67188 14.4647 9.54297 14.4647 9.54297ZM6.14774 5.55078C2.69474 5.55078 2.52274 8.51611 2.52274 8.51611H9.58573C9.58573 8.51611 9.58573 5.54688 6.14774 5.55078ZM26.9447 11.645C27.0898 13.5161 29.5468 13.5117 29.5468 13.5117C33.9488 13.5659 33.4998 9.56299 33.5028 9.56299L30.7228 9.56592C30.7228 9.56592 26.7928 9.64795 26.9447 11.645Z" fill="#666666"/>
<path d="M34.4378 4H37.2417L41.3478 12.1841L45.4648 4H47.9998L40.5738 19H37.8597L40.0088 14.5352L34.4378 4Z" fill="#666666"/>
</svg>
