<svg width="50" height="27" viewBox="0 0 50 27" fill="none" xmlns="http://www.w3.org/2000/svg">
<path d="M34.0112 19.9994C33.4451 19.6924 32.8108 19.5329 32.1668 19.5356C30.7495 19.5356 29.7661 20.5217 29.7661 21.8528C29.7661 23.1439 30.7071 24.1723 32.1668 24.1723C32.8103 24.1738 33.4441 24.0153 34.0112 23.7112V26.043C33.3636 26.2415 32.6907 26.3454 32.0134 26.3516C29.5474 26.3516 27.3829 24.6516 27.3829 21.8517C27.3829 19.258 29.3412 17.3553 32.0134 17.3553C32.6913 17.357 33.365 17.4622 34.0112 17.6671V19.9994ZM11.1276 19.9994C10.5628 19.6918 9.92919 19.5322 9.28599 19.5356C7.8659 19.5356 6.88328 20.5217 6.88328 21.8528C6.88328 23.1439 7.82497 24.1723 9.28599 24.1723C9.92869 24.1744 10.5617 24.0159 11.1276 23.7112V26.043C10.4794 26.2423 9.80571 26.3462 9.12762 26.3516C6.66382 26.3516 4.50205 24.6516 4.50205 21.8517C4.50205 19.258 6.46041 17.3553 9.12834 17.3553C9.80678 17.3565 10.481 17.4617 11.1276 17.6671V19.9994ZM40.9077 19.5682C40.6077 19.5654 40.3101 19.6226 40.0326 19.7367C39.7551 19.8507 39.5033 20.0192 39.292 20.2322C39.0807 20.4452 38.9143 20.6983 38.8024 20.9767C38.6906 21.2551 38.6357 21.5531 38.641 21.853C38.6355 22.1532 38.6902 22.4513 38.8019 22.7299C38.9136 23.0085 39.08 23.262 39.2913 23.4752C39.5026 23.6883 39.7546 23.857 40.0322 23.9711C40.3098 24.0853 40.6075 24.1426 40.9077 24.1397C41.2079 24.1425 41.5056 24.0851 41.7832 23.971C42.0608 23.8568 42.3128 23.6882 42.5242 23.475C42.7356 23.2619 42.9022 23.0085 43.0141 22.7299C43.126 22.4513 43.1809 22.1532 43.1756 21.853C43.1806 21.553 43.1255 21.2551 43.0135 20.9767C42.9015 20.6984 42.7349 20.4453 42.5235 20.2323C42.3121 20.0194 42.0603 19.8509 41.7827 19.7369C41.5052 19.6228 41.2077 19.5655 40.9077 19.5682ZM45.4986 21.853C45.4986 24.3383 43.5798 26.3522 40.9084 26.3522C38.2369 26.3522 36.3195 24.3383 36.3195 21.8523C36.3195 19.3717 38.2361 17.3558 40.9077 17.3558C43.5792 17.3558 45.4986 19.3715 45.4986 21.853ZM24.6476 19.4848C24.615 19.4746 23.692 19.2195 22.9337 19.2195C22.0552 19.2195 21.5774 19.514 21.5774 19.9314C21.5774 20.4606 22.2219 20.6452 22.5823 20.7591L23.1872 20.9515C24.6108 21.404 25.2586 22.3785 25.2586 23.4369C25.2586 25.6195 23.3393 26.3528 21.6615 26.3528C20.8673 26.3452 20.0754 26.2657 19.2956 26.1154V24.1159C19.4886 24.1645 20.4081 24.4395 21.3657 24.4395C22.4566 24.4395 22.958 24.1201 22.958 23.6284C22.958 23.1881 22.5241 22.9339 21.9803 22.7631C21.8483 22.7187 21.6483 22.6562 21.5122 22.6118C20.2914 22.2256 19.2733 21.5076 19.2733 20.0701C19.2733 18.4452 20.49 17.3542 22.5108 17.3542C23.2313 17.364 23.9483 17.4567 24.6476 17.6305V19.4848Z" fill="#666666"/>
<path d="M16.3336 26.1987H14.1413V17.5102H16.3336V26.1987Z" fill="#666666"/>
<path d="M1.8571 7.40632C2.0611 7.60954 2.17614 7.88541 2.17699 8.17339L2.17709 10.4539C2.16992 10.7378 2.05209 11.0077 1.84872 11.206C1.64536 11.4043 1.37257 11.5152 1.08855 11.5152C0.804523 11.5152 0.531726 11.4043 0.328362 11.206C0.124998 11.0077 0.00716178 10.7378 0 10.4539V8.17264C0.00114237 7.88471 0.116406 7.60903 0.320516 7.40597C0.524627 7.2029 0.800933 7.08902 1.08885 7.08937C1.37681 7.08912 1.6531 7.2031 1.8571 7.40632Z" fill="#666666"/>
<path d="M8.07253 4.76421C8.12723 4.89627 8.15539 5.03782 8.15539 5.18078V10.4543C8.15539 10.743 8.0407 11.0199 7.83656 11.224C7.63242 11.4282 7.35555 11.5429 7.06685 11.5429C6.77815 11.5429 6.50127 11.4282 6.29713 11.224C6.09299 11.0199 5.9783 10.743 5.9783 10.4543V5.18078C5.9783 5.03782 6.00646 4.89627 6.06117 4.76421C6.11587 4.63214 6.19605 4.51218 6.29713 4.4111C6.39822 4.31002 6.51822 4.22983 6.65028 4.17515C6.78235 4.12046 6.9239 4.09234 7.06685 4.09234C7.20979 4.09234 7.35134 4.12046 7.4834 4.17515C7.61547 4.22983 7.73547 4.31002 7.83655 4.4111C7.93763 4.51218 8.01782 4.63214 8.07253 4.76421Z" fill="#666666"/>
<path d="M13.8146 0.317704C14.0186 0.521071 14.1337 0.796997 14.1345 1.08502V12.6218C14.1273 12.9057 14.0094 13.1755 13.8061 13.3738C13.6027 13.572 13.33 13.6829 13.046 13.6829C12.762 13.6829 12.4892 13.572 12.2858 13.3738C12.0825 13.1755 11.9646 12.9057 11.9574 12.6218V1.08502C11.9583 0.796897 12.0734 0.52087 12.2776 0.317503C12.4817 0.114137 12.7581 0.000100428 13.0463 0.000301284C13.3343 0.000200856 13.6106 0.114337 13.8146 0.317704Z" fill="#666666"/>
<path d="M20.0304 4.76406C20.085 4.89622 20.113 5.03777 20.1129 5.18078L20.1133 5.17923V10.4534C20.1133 10.7421 19.9986 11.019 19.7945 11.2231C19.5904 11.4273 19.3135 11.5419 19.0248 11.5419C18.7361 11.5419 18.4592 11.4273 18.2551 11.2231C18.0509 11.019 17.9362 10.7421 17.9362 10.4534V5.17983C17.9362 5.03687 17.9644 4.89537 18.0191 4.7633C18.0738 4.63124 18.154 4.51123 18.2551 4.41015C18.3562 4.30907 18.4762 4.22893 18.6082 4.17424C18.7403 4.11956 18.8818 4.09139 19.0248 4.09139C19.1678 4.09144 19.3093 4.11966 19.4414 4.17444C19.5735 4.22923 19.6935 4.30947 19.7946 4.41065C19.8956 4.51183 19.9757 4.63189 20.0304 4.76406Z" fill="#666666"/>
<path d="M25.7684 7.40742C25.9713 7.61069 26.0852 7.88622 26.085 8.17339V10.4539C26.085 10.7417 25.9707 11.0177 25.7672 11.2212C25.5638 11.4246 25.2878 11.539 25 11.539C24.7122 11.539 24.4362 11.4246 24.2328 11.2212C24.0293 11.0177 23.9149 10.7417 23.9149 10.4539V8.17264C23.916 7.88481 24.0312 7.60918 24.2352 7.40612C24.4391 7.20305 24.7153 7.08917 25.0031 7.08937C25.2903 7.08977 25.5656 7.20416 25.7684 7.40742Z" fill="#666666"/>
<path d="M31.7389 4.43114C31.9416 4.62878 32.059 4.89778 32.0662 5.18078V10.4543C32.0662 10.5968 32.0382 10.7379 31.9836 10.8695C31.9291 11.0012 31.8492 11.1208 31.7484 11.2216C31.6477 11.3224 31.5281 11.4023 31.3964 11.4568C31.2648 11.5113 31.1237 11.5394 30.9812 11.5394C30.6934 11.5393 30.4175 11.425 30.214 11.2215C30.0105 11.0181 29.8962 10.7421 29.8961 10.4543V5.18078C29.9033 4.89778 30.0208 4.62878 30.2235 4.43114C30.4262 4.2335 30.6981 4.12287 30.9812 4.12287C31.2643 4.12287 31.5362 4.2335 31.7389 4.43114Z" fill="#666666"/>
<path d="M37.7309 0.317805C37.9344 0.521272 38.0487 0.797248 38.0487 1.08502V12.6218C38.0573 12.8176 38.0127 13.0121 37.9197 13.1846C37.8267 13.3571 37.6887 13.5013 37.5204 13.6017C37.3521 13.7022 37.1597 13.7553 36.9636 13.7553C36.7676 13.7553 36.5752 13.7022 36.4069 13.6017C36.2386 13.5012 36.1007 13.3571 36.0077 13.1845C35.9147 13.012 35.8701 12.8176 35.8787 12.6218V1.08502C35.8787 0.797248 35.993 0.521272 36.1965 0.317805C36.3999 0.114337 36.6759 0 36.9637 0C37.2515 0 37.5275 0.114337 37.7309 0.317805Z" fill="#666666"/>
<path d="M43.9454 4.76265C44.0009 4.89507 44.0296 5.03717 44.0299 5.18078V10.4543C44.0298 10.598 44.0013 10.7403 43.9459 10.8729C43.8905 11.0056 43.8094 11.1259 43.7073 11.227C43.6051 11.3281 43.484 11.4079 43.3508 11.462C43.2176 11.516 43.075 11.5431 42.9313 11.5416C42.7887 11.5415 42.6474 11.5133 42.5157 11.4586C42.384 11.404 42.2643 11.3238 42.1636 11.2228C42.0628 11.1218 41.983 11.002 41.9286 10.8701C41.8742 10.7383 41.8463 10.597 41.8466 10.4543V5.18008C41.8466 4.89235 41.9608 4.61633 42.1642 4.41281C42.3677 4.20929 42.6436 4.09485 42.9313 4.0947C43.0749 4.0934 43.2173 4.12046 43.3504 4.17444C43.4834 4.22842 43.6045 4.30816 43.7066 4.40909C43.8088 4.51002 43.8899 4.63024 43.9454 4.76265Z" fill="#666666"/>
<path d="M49.6819 7.40537C49.8856 7.60908 50 7.88531 50 8.17339L49.9993 10.454C49.9995 10.5967 49.9716 10.7381 49.9171 10.87C49.8627 11.0019 49.7828 11.1219 49.682 11.2229C49.5812 11.324 49.4615 11.4042 49.3297 11.4589C49.1979 11.5137 49.0567 11.542 48.9139 11.5421C48.7712 11.542 48.6298 11.5138 48.4979 11.4591C48.3661 11.4044 48.2463 11.3241 48.1454 11.2231C48.0446 11.1221 47.9646 11.0021 47.9101 10.8702C47.8556 10.7382 47.8277 10.5968 47.8279 10.454V8.17339C47.8279 7.88531 47.9423 7.60908 48.1459 7.40537C48.3496 7.20165 48.6259 7.08726 48.9139 7.08721C49.202 7.08726 49.4782 7.20165 49.6819 7.40537Z" fill="#666666"/>
<path d="M48.7449 25.1897H48.3574H48.7449Z" fill="#666666"/>
<path d="M48.3574 25.1897V26.1975V25.1897Z" fill="#666666"/>
<path d="M48.3574 26.1975H48.1977H48.3574Z" fill="#666666"/>
<path d="M48.1977 26.1975V25.1905V26.1975Z" fill="#666666"/>
<path d="M48.1977 25.1905H47.8088H48.1977Z" fill="#666666"/>
<path d="M47.8088 25.1905V25.0536V25.1905Z" fill="#666666"/>
<path d="M47.8088 25.0536L48.7449 25.0535L47.8088 25.0536Z" fill="#666666"/>
<path d="M49.0754 25.0535L49.4177 25.9918L49.0754 25.0535Z" fill="#666666"/>
<path d="M49.4177 25.9918H49.4233H49.4177Z" fill="#666666"/>
<path d="M49.4233 25.9918L49.7545 25.0543L49.4233 25.9918Z" fill="#666666"/>
<path d="M49.7545 25.0543H49.999H49.7545Z" fill="#666666"/>
<path d="M49.999 25.0543V26.1973V25.0543Z" fill="#666666"/>
<path d="M49.999 26.1973H49.8358H49.999Z" fill="#666666"/>
<path d="M49.8358 26.1973V25.2599V26.1973Z" fill="#666666"/>
<path d="M49.8358 25.2599H49.8302H49.8358Z" fill="#666666"/>
<path d="M49.8302 25.2599L49.483 26.1973L49.8302 25.2599Z" fill="#666666"/>
<path d="M49.483 26.1973H49.3326H49.483Z" fill="#666666"/>
<path d="M49.3326 26.1973L48.9932 25.2599L49.3326 26.1973Z" fill="#666666"/>
<path d="M48.9932 25.2599H48.9856H48.9932Z" fill="#666666"/>
<path d="M48.9856 25.2599V26.1973V25.2599Z" fill="#666666"/>
<path d="M48.9856 26.1973H48.8259H48.9856Z" fill="#666666"/>
<path d="M48.8259 26.1973L48.8261 25.0535L48.8259 26.1973Z" fill="#666666"/>
<path d="M49.0754 25.0535L49.4177 25.9918H49.4233L49.7545 25.0543H49.999V26.1973H49.8358V25.2599H49.8302L49.483 26.1973H49.3326L48.9932 25.2599H48.9856V26.1973H48.8259L48.8261 25.0535H49.0754Z" fill="#666666"/>
<path d="M48.7449 25.1897H48.3574V26.1975H48.1977V25.1905H47.8088V25.0536L48.7449 25.0535V25.1897Z" fill="#666666"/>
</svg>
