<svg width="95" height="21" viewBox="0 0 95 21" fill="none" xmlns="http://www.w3.org/2000/svg">
<path d="M94.1781 9.09604V7.43963H92.1214V4.86455L92.0523 4.88594L90.0826 5.4886V7.43963H87.0332V6.35201C87.0039 5.94024 87.1232 5.5316 87.3693 5.2002C87.4879 5.07006 87.634 4.96798 87.797 4.90136C87.96 4.83474 88.1358 4.80527 88.3116 4.81507C88.6205 4.81919 88.9251 4.88845 89.2054 5.01833L89.2811 5.05221V3.30933L89.2455 3.29641C88.8758 3.18252 88.4896 3.13099 88.103 3.14396C87.5387 3.13506 86.9814 3.26892 86.4827 3.5331C86.0143 3.78516 85.6283 4.16676 85.371 4.63231C85.1036 5.12719 84.968 5.68258 84.9774 6.24503V7.43963H83.5452V9.09604H84.9774V16.0733H87.0332V9.09604H90.0826V13.5286C90.0826 15.3561 90.9438 16.2802 92.643 16.2802C92.9365 16.2785 93.229 16.2461 93.5157 16.1834C93.7359 16.146 93.9498 16.0782 94.1514 15.982L94.1786 15.9659V14.2944L94.0948 14.3496C93.9672 14.4303 93.8278 14.4905 93.6815 14.5279C93.5498 14.5687 93.4133 14.5919 93.2755 14.597C93.1152 14.611 92.9538 14.5897 92.8026 14.5347C92.6515 14.4796 92.5142 14.3921 92.4005 14.2783C92.184 13.9521 92.0856 13.5618 92.1214 13.172V9.09604H94.1781ZM78.9531 14.5984C78.6251 14.6155 78.2973 14.5583 77.9945 14.431C77.6916 14.3037 77.4214 14.1097 77.204 13.8633C76.7531 13.2689 76.5302 12.5326 76.5755 11.7879C76.5277 11.0258 76.7503 10.2713 77.204 9.65723C77.4168 9.40909 77.6835 9.21283 77.9837 9.08343C78.2839 8.95404 78.6097 8.89492 78.9362 8.9106C79.2528 8.8954 79.5688 8.9516 79.8608 9.07505C80.1528 9.19851 80.4132 9.38605 80.6229 9.6238C81.0733 10.2324 81.2917 10.9818 81.2389 11.7371C81.2909 12.4951 81.0869 13.2485 80.6595 13.8767C80.451 14.1216 80.1881 14.3143 79.8918 14.4395C79.5955 14.5646 79.2741 14.6196 78.9531 14.5984ZM79.0445 7.22835C78.4294 7.19452 77.8138 7.2871 77.2359 7.50038C76.6579 7.71367 76.1297 8.04312 75.684 8.46842C75.2671 8.92371 74.945 9.45748 74.7365 10.0386C74.528 10.6197 74.4374 11.2365 74.4698 11.853C74.4403 12.4436 74.53 13.0341 74.7336 13.5892C74.9373 14.1444 75.2506 14.6528 75.655 15.0842C76.0764 15.4889 76.5758 15.8034 77.1228 16.0086C77.6698 16.2139 78.2528 16.3055 78.8363 16.2779C79.4425 16.3077 80.0483 16.2114 80.6153 15.995C81.1823 15.7787 81.6982 15.447 82.1304 15.0209C82.5439 14.5701 82.8641 14.0419 83.0725 13.4667C83.2809 12.8916 83.3734 12.2809 83.3447 11.6698C83.4094 10.4773 83 9.30762 82.2058 8.41582C81.7898 8.0099 81.2939 7.69485 80.7498 7.49066C80.2056 7.28647 79.6249 7.1976 79.0445 7.22969V7.22835ZM71.1548 7.22969C70.2999 7.19352 69.4586 7.45346 68.7731 7.96562C68.4784 8.18939 68.2407 8.47966 68.0794 8.81275C67.9181 9.14584 67.8378 9.51233 67.8451 9.88233C67.8379 10.2489 67.9061 10.613 68.0452 10.9521C68.1834 11.2646 68.3939 11.5396 68.6595 11.7545C69.0423 12.0423 69.4621 12.2774 69.9076 12.4534C70.2637 12.5933 70.6108 12.7549 70.9471 12.9375C71.124 13.0298 71.2798 13.1577 71.4048 13.3133C71.4964 13.4598 71.5407 13.631 71.5319 13.8036C71.5319 14.3831 71.0977 14.6657 70.2036 14.6657C69.8205 14.6565 69.4413 14.5872 69.0798 14.4602C68.6685 14.3258 68.2804 14.129 67.9289 13.8767L67.8433 13.8156V15.7952L67.8745 15.8099C68.2241 15.9625 68.5896 16.0754 68.9644 16.1464C69.3469 16.2299 69.7368 16.2747 70.1282 16.2802C71.0263 16.3271 71.9134 16.0659 72.6427 15.5398C72.9423 15.3098 73.1833 15.0123 73.346 14.6714C73.5087 14.3306 73.5885 13.9561 73.5788 13.5785C73.5935 13.0397 73.4148 12.5134 73.0751 12.095C72.5993 11.601 72.0127 11.2274 71.3638 11.0052C70.9269 10.8588 70.5155 10.645 70.1447 10.3713C70.0602 10.2833 69.9947 10.1789 69.9523 10.0644C69.91 9.95002 69.8917 9.82808 69.8987 9.70626C69.8969 9.58611 69.9243 9.46733 69.9787 9.36017C70.0331 9.25301 70.1127 9.16067 70.2107 9.09113C70.4668 8.91393 70.7747 8.82704 71.0857 8.84419C71.4389 8.84587 71.7899 8.89979 72.1274 9.00421C72.4501 9.09829 72.7568 9.24044 73.0372 9.42589L73.121 9.48339V7.60813L73.0889 7.59431C72.7911 7.47567 72.4815 7.3893 72.1653 7.33667C71.8316 7.27128 71.4926 7.23622 71.1525 7.23192L71.1548 7.22969ZM62.4859 14.5984C62.1578 14.6155 61.8301 14.5583 61.5272 14.431C61.2243 14.3037 60.9541 14.1097 60.7368 13.8633C60.2865 13.2694 60.0638 12.534 60.1087 11.7901C60.0609 11.0281 60.2834 10.2736 60.7372 9.65946C60.9499 9.41124 61.2166 9.21492 61.5168 9.08552C61.817 8.95612 62.1428 8.89705 62.4694 8.91283C62.786 8.89762 63.102 8.95383 63.394 9.07728C63.6859 9.20074 63.9464 9.38828 64.1561 9.62603C64.6065 10.2347 64.8249 10.984 64.7721 11.7393C64.8241 12.4973 64.62 13.2508 64.1926 13.8789C63.9842 14.1238 63.7213 14.3166 63.425 14.4417C63.1287 14.5669 62.8072 14.621 62.4863 14.5997L62.4859 14.5984ZM62.5781 7.23058C61.963 7.1967 61.3474 7.28926 60.7694 7.50254C60.1915 7.71582 59.6633 8.04531 59.2176 8.47065C58.8006 8.9259 58.4784 9.45965 58.2699 10.0408C58.0613 10.6219 57.9706 11.2387 58.003 11.8552C57.9735 12.4458 58.0632 13.0364 58.2669 13.5915C58.4707 14.1467 58.7841 14.6551 59.1887 15.0864C59.61 15.4911 60.1094 15.8057 60.6564 16.0109C61.2034 16.2161 61.7864 16.3077 62.37 16.2802C62.9761 16.3099 63.5819 16.2136 64.1489 15.9972C64.7159 15.7808 65.2318 15.4492 65.664 15.0231C66.0775 14.5723 66.3977 14.0441 66.6061 13.4689C66.8145 12.8938 66.907 12.2831 66.8783 11.672C66.943 10.4795 66.5335 9.30972 65.7389 8.41805C65.323 8.01218 64.8272 7.69716 64.2831 7.49298C63.739 7.28879 63.1584 7.19989 62.5781 7.23192V7.23058ZM54.8823 8.93512V7.43963H52.8515V16.0733H54.8823V11.6564C54.8532 11.007 55.0305 10.3651 55.3887 9.82261C55.5323 9.6063 55.7279 9.42946 55.9575 9.30829C56.1872 9.18712 56.4435 9.12549 56.7032 9.12902C56.9097 9.13216 57.115 9.16213 57.3138 9.21817C57.4812 9.25536 57.6412 9.32013 57.7872 9.40984L57.8728 9.4718V7.42492L57.8398 7.41066C57.585 7.3196 57.315 7.27858 57.0446 7.28986C56.5483 7.28498 56.0666 7.45761 55.6864 7.77662C55.3305 8.08921 55.0614 8.48841 54.905 8.93556L54.8823 8.93512ZM49.2146 7.23147C48.3541 7.21414 47.5037 7.41861 46.7452 7.82521C46.0476 8.20905 45.4805 8.79231 45.1164 9.50033C44.7326 10.2701 44.5407 11.1213 44.557 11.9814C44.5469 12.7569 44.734 13.5223 45.1008 14.2056C45.4489 14.8534 45.9765 15.3869 46.6203 15.7421C47.3021 16.1091 48.0665 16.295 48.8406 16.2819C49.694 16.3093 50.5396 16.1115 51.2922 15.7083L51.319 15.6931V13.8321L51.2334 13.8945C50.9295 14.1149 50.5947 14.2893 50.2398 14.412C49.9282 14.5284 49.5993 14.5921 49.2668 14.6006C48.9156 14.6177 48.5648 14.5605 48.2372 14.4329C47.9096 14.3052 47.6126 14.1099 47.3656 13.8597C46.8734 13.2928 46.6219 12.5562 46.6645 11.8066C46.6271 11.0361 46.8891 10.281 47.3955 9.69913C47.6384 9.43958 47.934 9.2351 48.2626 9.09946C48.5911 8.96383 48.945 8.90019 49.3002 8.91283C50.0001 8.92382 50.6779 9.15965 51.2334 9.58547L51.3185 9.64742V7.68613L51.2909 7.67053C50.9952 7.51857 50.6785 7.41146 50.3513 7.35271C49.9779 7.27366 49.5975 7.23288 49.2159 7.23103L49.2146 7.23147ZM43.1591 7.43919H41.1283V16.0733H43.1591V7.43919ZM42.1646 3.76132C41.8429 3.75621 41.532 3.87808 41.2994 4.10053C41.1824 4.20791 41.0896 4.33896 41.0271 4.48499C40.9646 4.63101 40.9339 4.78866 40.9371 4.94746C40.9335 5.10334 40.9635 5.25817 41.0251 5.40145C41.0866 5.54472 41.1782 5.6731 41.2937 5.77789C41.5293 5.997 41.8411 6.11565 42.1629 6.10863C42.4855 6.11506 42.7981 5.99674 43.0356 5.77833C43.1526 5.6743 43.2457 5.54616 43.3084 5.40272C43.3711 5.25929 43.402 5.10397 43.3989 4.94746C43.4006 4.79108 43.37 4.63602 43.3092 4.49194C43.2484 4.34786 43.1586 4.21781 43.0455 4.1099C42.9293 3.99534 42.7912 3.90542 42.6395 3.84552C42.4878 3.78562 42.3255 3.75698 42.1624 3.76132H42.1646ZM37.0952 6.80222V16.0738H39.1679V4.0261H36.2995L32.6533 12.9745L29.1149 4.0261H26.1284V16.0729H28.0763V6.80132H28.1432L31.8795 16.0729H33.3504L37.0287 6.80132L37.0952 6.80222Z" fill="#666666"/>
<path d="M9.55372 9.55372H0V0H9.55372V9.55372Z" fill="#666666"/>
<path d="M20.1023 9.55372H10.5486V0H20.1023V9.55372Z" fill="#666666"/>
<path d="M9.55372 20.1059H0V10.5521H9.55372V20.1059Z" fill="#666666"/>
<path d="M20.1023 20.1059H10.5486V10.5521H20.1023V20.1059Z" fill="#666666"/>
</svg>
