<svg width="75" height="16" viewBox="0 0 75 16" fill="none" xmlns="http://www.w3.org/2000/svg">
<path d="M12.1751 0H15.0595V9.35234C15.0595 14.2729 11.9838 16 7.52176 16C3.07564 16 0 14.2729 0 9.35234V0.374745C0 0.114053 0.127487 0 0.382462 0H3.26687V9.2057C3.26687 12.1548 4.54174 13.3768 7.52176 13.3768C10.5177 13.3768 11.7926 12.1548 11.7926 9.2057V0.374745C11.7926 0.114053 11.9201 0 12.1751 0ZM44.8278 2.55804V6.50102H52.1264C52.2539 6.50102 52.3017 6.56619 52.2539 6.69654L51.4571 8.7169C51.3774 8.89613 51.2659 8.9776 51.0269 8.9776H46.7401C45.3377 8.9776 44.8278 9.41752 44.8278 10.3788V13.165H54.7081C54.8355 13.165 54.8834 13.2301 54.8355 13.3605L54.0069 15.4623C53.9272 15.6415 53.8156 15.723 53.5766 15.723H42.7561C41.9274 15.723 41.6087 15.4297 41.6087 14.7943V1.09165C41.6087 0.325866 42.0231 0 43.1067 0H54.7081C54.8355 0 54.8834 0.0651731 54.8355 0.179226L54.0069 2.29735C53.9272 2.47658 53.8156 2.55804 53.5766 2.55804H44.8278ZM35.6646 11.3727C35.6646 14.5173 33.4973 15.723 30.4536 15.723H22.39C21.5454 15.723 21.2426 15.4297 21.2426 14.7943V1.09165C21.2426 0.325866 21.641 0 22.7406 0H29.2902C32.1587 0 34.9316 0.505092 34.9316 3.99185C34.9316 5.49084 34.4057 6.76171 33.1467 7.42974C34.8838 7.90224 35.6646 9.49898 35.6646 11.3727ZM24.4138 6.5499H29.5293C31.2185 6.5499 31.6966 5.88187 31.6966 4.51324C31.6966 3.1446 31.2185 2.49287 29.5293 2.49287H24.4138V6.5499ZM32.4296 11.0794C32.4296 9.62933 31.9356 8.91242 30.1189 8.91242H26.3421C24.9397 8.91242 24.4138 9.35234 24.4138 10.3136V13.2301H30.1189C31.9356 13.2301 32.4296 12.5132 32.4296 11.0794ZM74.8192 15.723H71.887C71.648 15.723 71.5523 15.6253 71.4567 15.4623L68.3492 9.72709H65.4967C64.0943 9.72709 63.5684 10.167 63.5684 11.1283V15.723H60.7637C60.5087 15.723 60.3813 15.5927 60.3813 15.3483V1.09165C60.3813 0.325866 60.7956 0 61.8792 0H68.4608C72.3013 0 74.612 1.02648 74.612 4.8391C74.612 7.78819 73.2256 8.94501 71.5045 9.40122L74.9626 15.446C75.0264 15.5438 75.0264 15.723 74.8192 15.723ZM71.377 4.90428C71.377 3.30754 70.9468 2.52546 68.9389 2.52546H63.5684V7.2831H68.9389C70.9468 7.2831 71.377 6.51731 71.377 4.90428Z" fill="#666666"/>
</svg>
