<svg width="202" height="49" viewBox="0 0 202 49" fill="none" xmlns="http://www.w3.org/2000/svg">
<path d="M66 40H71.6V29.08H72.64C73 29.92 73.32 30.52 73.72 31.12L79.68 40H86.28L78.44 28.56C82.68 27.64 85.16 24.92 85.16 20.48C85.16 15 81.32 11.92 75.04 11.96L66 12V40ZM71.6 24.04V17.04H74.72C77.76 17.04 79.48 18.28 79.48 20.52C79.48 22.8 77.76 24.04 74.72 24.04H71.6ZM87.6313 40H93.0313V28.6C93.0313 25 95.0713 23.44 97.3513 23.44C100.031 23.44 101.831 25 101.831 28.6V40H107.231V27.28C107.231 22.04 103.791 18.72 99.3113 18.72C96.1913 18.72 94.1513 19.84 93.0313 22.08V10.8H87.6313V40ZM111.353 48.36C116.233 48.36 118.833 45.52 120.593 41.32L129.793 19.2H123.393L119.353 31.08C118.993 32.08 118.673 33.32 118.473 34.4C118.273 33.32 117.953 32.08 117.593 31.08L113.553 19.2H107.033L115.273 39.04L114.993 39.92C114.393 41.76 113.073 43.08 110.993 43.08C110.113 43.08 109.353 43 108.553 42.8L107.753 47.96C108.833 48.28 110.273 48.36 111.353 48.36ZM139.261 40H142.221V35.2H139.981C138.941 35.2 138.301 34.6 138.301 33.28V23.8H142.701V19.2H138.301V14.44L132.901 15V19.2H129.981V23.8H132.901V33.56C132.901 38.08 135.141 40 139.261 40ZM144.506 40H149.906V28.6C149.906 25 151.946 23.44 154.226 23.44C156.906 23.44 158.706 25 158.706 28.6V40H164.106V27.28C164.106 22.04 160.666 18.72 156.186 18.72C153.066 18.72 151.026 19.84 149.906 22.08V10.8H144.506V40ZM167.123 40H172.523V28.6C172.523 25 174.563 23.44 176.843 23.44C179.523 23.44 181.323 25 181.323 28.6V40H186.723V28.6C186.723 24.6 188.443 23.44 190.963 23.44C193.403 23.44 195.123 25 195.123 28.6V40H200.523V27.28C200.523 22.04 197.083 18.72 192.603 18.72C188.963 18.72 186.963 20.12 185.563 22.64C184.203 20.12 181.723 18.72 178.803 18.72C175.603 18.72 173.523 19.92 172.443 22.24V19.2H167.123V40Z" fill="#121212"/>
<path fill-rule="evenodd" clip-rule="evenodd" d="M20.2139 25.0374C19.6652 35.5241 10.8456 43.878 0 44V4C10.8456 4.12209 19.6652 12.4759 20.2139 22.9626C20.7553 12.6141 29.3512 4.34272 40 4.00915V43.991C29.3512 43.6574 20.7553 35.386 20.2139 25.0374Z" fill="#FF6428"/>
</svg>
