<svg width="137" height="33" viewBox="0 0 137 33" fill="none" xmlns="http://www.w3.org/2000/svg">
<path d="M50.6049 12.3896C50.2583 11.751 49.7565 11.2676 49.0997 10.9392C48.4611 10.5926 47.704 10.4192 46.8283 10.4192C45.3139 10.4192 44.1008 10.921 43.1885 11.9244C42.2762 12.9096 41.8202 14.2324 41.8202 15.8926C41.8202 17.6623 42.2946 19.0489 43.2432 20.0523C44.2102 21.0375 45.5329 21.5301 47.2114 21.5301C48.3608 21.5301 49.3278 21.2382 50.1123 20.6544C50.9151 20.0705 51.4988 19.2313 51.8638 18.1366H45.9252V14.6884H56.1056V19.0398C55.759 20.2074 55.166 21.293 54.3268 22.2964C53.5058 23.2998 52.4567 24.1118 51.1796 24.732C49.9025 25.3523 48.4611 25.6625 46.8556 25.6625C44.9582 25.6625 43.2614 25.252 41.7654 24.431C40.2876 23.5918 39.1291 22.4332 38.2899 20.9554C37.4688 19.4776 37.0583 17.79 37.0583 15.8926C37.0583 13.9951 37.4688 12.3075 38.2899 10.8297C39.1291 9.33372 40.2876 8.17516 41.7654 7.35415C43.2432 6.51494 44.9308 6.09528 46.8283 6.09528C49.1271 6.09528 51.061 6.65178 52.63 7.76466C54.2173 8.87753 55.2664 10.4192 55.7772 12.3896H50.6049ZM63.3775 12.8001C63.9248 11.9609 64.609 11.3041 65.43 10.8297C66.251 10.3371 67.1632 10.0908 68.1666 10.0908V15.0442H66.8804C65.7128 15.0442 64.8371 15.2997 64.2532 15.8105C63.6693 16.3031 63.3775 17.1788 63.3775 18.4377V25.5257H58.6978V10.255H63.3775V12.8001ZM77.3546 25.7446C75.8585 25.7446 74.5085 25.4254 73.3043 24.7868C72.1184 24.1482 71.1788 23.236 70.4856 22.0501C69.8104 20.8642 69.473 19.4776 69.473 17.8903C69.473 16.3213 69.8196 14.9439 70.5129 13.758C71.2061 12.5538 72.1549 11.6325 73.3591 10.9939C74.5632 10.3553 75.9132 10.0361 77.4093 10.0361C78.9054 10.0361 80.2555 10.3553 81.4596 10.9939C82.6638 11.6325 83.6124 12.5538 84.3058 13.758C84.999 14.9439 85.3457 16.3213 85.3457 17.8903C85.3457 19.4594 84.9899 20.846 84.2784 22.0501C83.5851 23.236 82.6272 24.1482 81.4049 24.7868C80.2007 25.4254 78.8506 25.7446 77.3546 25.7446ZM77.3546 21.6943C78.2486 21.6943 79.0057 21.3659 79.626 20.7091C80.2645 20.0523 80.5839 19.1127 80.5839 17.8903C80.5839 16.668 80.2737 15.7284 79.6534 15.0716C79.0513 14.4148 78.3033 14.0864 77.4093 14.0864C76.4971 14.0864 75.74 14.4148 75.1379 15.0716C74.5358 15.7102 74.2348 16.6497 74.2348 17.8903C74.2348 19.1127 74.5267 20.0523 75.1105 20.7091C75.7126 21.3659 76.4606 21.6943 77.3546 21.6943ZM109.749 10.255L105.616 25.5257H100.444L98.0362 15.6189L95.5458 25.5257H90.4009L86.2411 10.255H90.9208L93.0828 21.1744L95.6553 10.255H100.608L103.208 21.1196L105.343 10.255H109.749ZM119.196 14.1411H116.679V25.5257H111.999V14.1411H110.302V10.255H111.999V9.81716C111.999 7.93801 112.537 6.51494 113.614 5.54795C114.69 4.56275 116.268 4.07014 118.348 4.07014C118.694 4.07014 118.95 4.07927 119.114 4.09751V8.06569C118.221 8.01096 117.591 8.13863 117.226 8.44882C116.861 8.75901 116.679 9.3154 116.679 10.1182V10.255H119.196V14.1411ZM136.994 10.255L127.416 32.7779H122.38L125.883 25.0057L119.671 10.255H124.898L128.429 19.806L131.931 10.255H136.994Z" fill="white"/>
<path d="M16.1565 7.63203C16.1565 3.5628 19.4552 0.264065 23.5244 0.264065H30.8924V7.63203C30.8924 11.7013 27.5937 15 23.5244 15C19.4552 15 16.1565 11.7013 16.1565 7.63203Z" fill="#FF6D35"/>
<path d="M23.5243 32.6771C19.4551 32.6771 16.1564 29.3784 16.1564 25.3092V17.9412H23.5243C27.5935 17.9412 30.8923 21.2399 30.8923 25.3092C30.8923 29.3784 27.5935 32.6771 23.5243 32.6771Z" fill="#5CC97B"/>
<path d="M13.8348 15.6522C13.8348 7.47541 7.70856 0.846943 0.151459 0.846943V25.0214C0.151459 29.1097 3.21458 32.424 6.99324 32.424C10.7717 32.424 13.8348 29.1097 13.8348 25.0214V15.6522Z" fill="#3D96F4"/>
</svg>
