<svg width="211" height="65" viewBox="0 0 211 65" fill="none" xmlns="http://www.w3.org/2000/svg">
<path d="M29.8756 28.2956C32.0298 26.3337 34.9549 25.1886 37.9195 25.0462C38.9342 25.0462 39.9518 25.0519 40.9665 25.0432C40.9147 26.0809 40.9665 27.1214 40.936 28.159C40.7928 30.4784 39.8939 32.7454 38.3796 34.5649C36.4113 37.0122 33.4009 38.6543 30.2047 39.0787C28.8092 39.2938 27.3923 39.1572 25.9877 39.195C26.0121 38.0527 25.9359 36.9076 26.0304 35.7682C26.3046 32.9431 27.7032 30.2371 29.8756 28.2956Z" fill="#81818B"/>
<path d="M41.906 25.0432C42.9938 25.0549 44.0816 25.0374 45.1724 25.049C47.8872 25.2321 50.5655 26.2261 52.6098 27.9498C54.8645 29.7954 56.4096 32.4345 56.8054 35.2538C56.9792 36.5617 56.8695 37.8841 56.9367 39.1978C55.9859 39.195 55.0383 39.1921 54.0875 39.1978C51.7507 39.1368 49.4533 38.416 47.4972 37.2011C46.5953 36.5849 45.669 35.9601 44.9926 35.1055C43.5088 33.5244 42.5002 31.5392 42.1193 29.4466C41.8329 27.9933 41.9487 26.511 41.906 25.0432Z" fill="#81818B"/>
<path d="M25.9898 40.0291C26.9557 40.0813 27.9246 39.9854 28.8874 40.0872C33.0099 40.1714 37.0106 42.3804 39.1464 45.7432C40.3714 47.6266 41.0295 49.8589 40.9442 52.0763C40.9411 52.8035 40.9533 53.5269 40.932 54.2509C39.4024 54.2068 37.8576 54.326 36.3432 54.044C32.9795 53.5038 29.8869 51.5939 28.0251 48.8677C26.6144 46.8854 25.9106 44.4644 25.9837 42.0723C25.9837 41.3892 25.9837 40.7091 25.9898 40.0291Z" fill="#81818B"/>
<path d="M51.7884 40.337C53.446 39.9853 55.1548 40.0434 56.8401 40.0434L56.9136 40.1132C56.8768 41.6333 57.0018 43.1708 56.6821 44.6735C56.0085 48.045 53.6686 51.0559 50.5209 52.7097C48.5617 53.7506 46.3131 54.2619 44.0736 54.2388C43.3576 54.242 42.6385 54.2273 41.9225 54.2472C41.9225 52.9888 41.8676 51.7248 42.0169 50.4717C42.3643 47.4404 44.0827 44.6182 46.5538 42.7116C48.0833 41.5606 49.8811 40.7265 51.7884 40.337Z" fill="#81818B"/>
<path d="M69.4217 48.6211C69.4217 49.1328 69.2359 49.5657 68.8652 49.92C68.514 50.2547 68.0704 50.422 67.5344 50.422C67.0183 50.422 66.5852 50.2547 66.2345 49.92C65.8838 49.5657 65.7084 49.1328 65.7084 48.6211V30.3775C65.7084 29.8658 65.8838 29.4427 66.2345 29.1082C66.6056 28.7539 67.0598 28.5768 67.5963 28.5768C68.1323 28.5768 68.5654 28.7539 68.8957 29.1082C69.2464 29.4427 69.4217 29.8658 69.4217 30.3775V48.6211Z" fill="#81818B"/>
<path d="M84.3275 34.6284C84.8636 34.6284 85.3072 34.8055 85.6584 35.1598C86.0086 35.4943 86.1839 35.9174 86.1839 36.4291V43.9273C86.1839 46.0134 85.5754 47.6665 84.3585 48.8867C83.141 50.1069 81.3875 50.7168 79.0969 50.7168C76.8074 50.7168 75.0534 50.1069 73.8365 48.8867C72.64 47.6665 72.0415 46.0134 72.0415 43.9273V36.4291C72.0415 35.9174 72.2168 35.4943 72.5675 35.1598C72.9182 34.8055 73.3618 34.6284 73.8984 34.6284C74.4349 34.6284 74.878 34.8055 75.2287 35.1598C75.58 35.4943 75.7553 35.9174 75.7553 36.4291V43.9273C75.7553 45.1278 76.0341 46.0232 76.5906 46.6136C77.1476 47.1844 77.9834 47.4697 79.0969 47.4697C80.2325 47.4697 81.0778 47.1844 81.6353 46.6136C82.1918 46.0232 82.4706 45.1278 82.4706 43.9273V36.4291C82.4706 35.9174 82.646 35.4943 82.9967 35.1598C83.3474 34.8055 83.791 34.6284 84.3275 34.6284Z" fill="#81818B"/>
<path d="M97.3533 34.3333C99.0039 34.3333 100.221 34.717 101.005 35.4845C101.789 36.2324 102.305 37.2065 102.552 38.407L102.026 38.1413L102.274 37.669C102.521 37.2163 102.903 36.7342 103.419 36.2225C103.935 35.6912 104.554 35.2484 105.276 34.8941C106.018 34.5202 106.844 34.3333 107.751 34.3333C109.237 34.3333 110.361 34.6383 111.125 35.2483C111.909 35.8584 112.445 36.6752 112.734 37.6986C113.023 38.7022 113.167 39.824 113.167 41.0639V48.6211C113.167 49.1328 112.992 49.5656 112.641 49.92C112.29 50.2547 111.847 50.422 111.31 50.422C110.774 50.422 110.33 50.2547 109.98 49.92C109.629 49.5656 109.453 49.1328 109.453 48.6211V41.0639C109.453 40.4144 109.371 39.8339 109.206 39.3221C109.041 38.7908 108.742 38.3677 108.308 38.0528C107.875 37.7379 107.256 37.5804 106.452 37.5804C105.668 37.5804 104.997 37.7379 104.44 38.0528C103.883 38.3677 103.46 38.7908 103.171 39.3221C102.903 39.8339 102.769 40.4144 102.769 41.0639V48.6211C102.769 49.1328 102.593 49.5656 102.243 49.92C101.892 50.2547 101.448 50.422 100.912 50.422C100.376 50.422 99.9321 50.2547 99.5819 49.92C99.2307 49.5656 99.0553 49.1328 99.0553 48.6211V41.0639C99.0553 40.4144 98.9729 39.8339 98.8075 39.3221C98.6427 38.7908 98.3434 38.3677 97.9103 38.0528C97.4772 37.7379 96.8577 37.5804 96.0534 37.5804C95.2696 37.5804 94.5991 37.7379 94.0416 38.0528C93.4851 38.3677 93.0619 38.7908 92.7732 39.3221C92.5049 39.8339 92.371 40.4144 92.371 41.0639V48.6211C92.371 49.1328 92.1957 49.5656 91.845 49.92C91.4938 50.2547 91.0507 50.422 90.5141 50.422C89.9776 50.422 89.5345 50.2547 89.1832 49.92C88.8325 49.5656 88.6572 49.1328 88.6572 48.6211V36.4292C88.6572 35.9175 88.8325 35.4943 89.1832 35.1598C89.5345 34.8055 89.9776 34.6285 90.5141 34.6285C91.0507 34.6285 91.4938 34.8055 91.845 35.1598C92.1957 35.4943 92.371 35.9175 92.371 36.4292V37.6986L91.9064 37.61C92.0923 37.2754 92.3506 36.9211 92.6803 36.5472C93.0105 36.1536 93.4126 35.7895 93.8872 35.455C94.3618 35.1204 94.8879 34.8547 95.4654 34.6579C96.0434 34.4415 96.6729 34.3333 97.3533 34.3333Z" fill="#81818B"/>
<path d="M119.136 48.6211C119.136 49.1328 118.961 49.5656 118.609 49.92C118.259 50.2547 117.816 50.422 117.279 50.422C116.743 50.422 116.299 50.2547 115.948 49.92C115.598 49.5656 115.423 49.1328 115.423 48.6211V36.4292C115.423 35.9175 115.598 35.4943 115.948 35.1598C116.299 34.8055 116.743 34.6285 117.279 34.6285C117.816 34.6285 118.259 34.8055 118.609 35.1598C118.961 35.4943 119.136 35.9175 119.136 36.4292V48.6211ZM117.248 32.7096C116.547 32.7096 116.052 32.6014 115.762 32.3849C115.474 32.1684 115.33 31.7846 115.33 31.2336V30.6727C115.33 30.102 115.485 29.7182 115.793 29.5214C116.124 29.3049 116.619 29.1967 117.279 29.1967C118.002 29.1967 118.507 29.3049 118.795 29.5214C119.085 29.7379 119.229 30.1217 119.229 30.6727V31.2336C119.229 31.8043 119.074 32.1979 118.764 32.4144C118.456 32.6112 117.95 32.7096 117.248 32.7096Z" fill="#81818B"/>
<path d="M130.256 34.3333C131.783 34.3333 132.938 34.6383 133.722 35.2483C134.527 35.8584 135.073 36.6752 135.362 37.6986C135.672 38.7022 135.826 39.824 135.826 41.0639V48.6211C135.826 49.1328 135.651 49.5656 135.3 49.92C134.95 50.2547 134.506 50.422 133.969 50.422C133.433 50.422 132.99 50.2547 132.639 49.92C132.288 49.5656 132.112 49.1328 132.112 48.6211V41.0639C132.112 40.4144 132.02 39.8339 131.835 39.3221C131.669 38.7908 131.36 38.3677 130.906 38.0528C130.452 37.7379 129.802 37.5804 128.956 37.5804C128.131 37.5804 127.429 37.7379 126.852 38.0528C126.295 38.3677 125.862 38.7908 125.552 39.3221C125.263 39.8339 125.118 40.4144 125.118 41.0639V48.6211C125.118 49.1328 124.944 49.5656 124.593 49.92C124.242 50.2547 123.798 50.422 123.262 50.422C122.725 50.422 122.282 50.2547 121.932 49.92C121.58 49.5656 121.405 49.1328 121.405 48.6211V36.4292C121.405 35.9175 121.58 35.4943 121.932 35.1598C122.282 34.8055 122.725 34.6285 123.262 34.6285C123.798 34.6285 124.242 34.8055 124.593 35.1598C124.944 35.4943 125.118 35.9175 125.118 36.4292V37.6986L124.655 37.61C124.841 37.2754 125.108 36.9211 125.459 36.5472C125.81 36.1536 126.223 35.7895 126.697 35.455C127.172 35.1204 127.708 34.8547 128.306 34.6579C128.905 34.4415 129.555 34.3333 130.256 34.3333Z" fill="#81818B"/>
<path d="M154.2 42.5398C154.2 44.1536 153.818 45.5805 153.055 46.8203C152.312 48.0405 151.301 48.995 150.022 49.6837C148.763 50.3728 147.35 50.7168 145.782 50.7168C144.214 50.7168 142.79 50.3728 141.512 49.6837C140.253 48.995 139.242 48.0405 138.479 46.8203C137.736 45.5805 137.365 44.1536 137.365 42.5398C137.365 40.9261 137.736 39.5091 138.479 38.2889C139.242 37.0491 140.253 36.0848 141.512 35.396C142.79 34.6875 144.214 34.3333 145.782 34.3333C147.35 34.3333 148.763 34.6875 150.022 35.396C151.301 36.0848 152.312 37.0491 153.055 38.2889C153.818 39.5091 154.2 40.9261 154.2 42.5398ZM150.486 42.5398C150.486 41.5362 150.27 40.6703 149.836 39.9421C149.423 39.1942 148.856 38.6137 148.134 38.2004C147.433 37.7871 146.649 37.5804 145.782 37.5804C144.916 37.5804 144.121 37.7871 143.399 38.2004C142.698 38.6137 142.13 39.1942 141.697 39.9421C141.285 40.6703 141.078 41.5362 141.078 42.5398C141.078 43.5239 141.285 44.3898 141.697 45.1377C142.13 45.8658 142.698 46.4365 143.399 46.8498C144.121 47.2632 144.916 47.4697 145.782 47.4697C146.649 47.4697 147.433 47.2632 148.134 46.8498C148.856 46.4365 149.423 45.8658 149.836 45.1377C150.27 44.3898 150.486 43.5239 150.486 42.5398Z" fill="#81818B"/>
<path d="M168.041 34.6284C168.577 34.6284 169.021 34.8055 169.372 35.1598C169.722 35.4943 169.898 35.9174 169.898 36.4291V43.9273C169.898 46.0134 169.289 47.6665 168.072 48.8867C166.854 50.1069 165.101 50.7168 162.811 50.7168C160.521 50.7168 158.767 50.1069 157.55 48.8867C156.353 47.6665 155.755 46.0134 155.755 43.9273V36.4291C155.755 35.9174 155.93 35.4943 156.281 35.1598C156.632 34.8055 157.075 34.6284 157.612 34.6284C158.148 34.6284 158.592 34.8055 158.943 35.1598C159.293 35.4943 159.469 35.9174 159.469 36.4291V43.9273C159.469 45.1278 159.747 46.0232 160.304 46.6136C160.861 47.1844 161.697 47.4697 162.811 47.4697C163.945 47.4697 164.792 47.1844 165.348 46.6136C165.906 46.0232 166.184 45.1278 166.184 43.9273V36.4291C166.184 35.9174 166.36 35.4943 166.71 35.1598C167.061 34.8055 167.505 34.6284 168.041 34.6284Z" fill="#81818B"/>
<path d="M171.411 47.9716C171.205 47.6961 171.112 47.3419 171.133 46.9089C171.154 46.4759 171.422 46.102 171.938 45.7871C172.268 45.5903 172.618 45.5116 172.99 45.551C173.361 45.5707 173.722 45.7477 174.073 46.0823C174.672 46.653 175.301 47.0958 175.961 47.4107C176.621 47.7256 177.446 47.883 178.436 47.883C178.746 47.8633 179.086 47.824 179.458 47.765C179.829 47.6863 180.149 47.5288 180.417 47.2927C180.705 47.0368 180.85 46.653 180.85 46.1413C180.85 45.7084 180.695 45.364 180.386 45.1081C180.076 44.8523 179.664 44.6359 179.148 44.4587C178.653 44.2816 178.096 44.1143 177.477 43.9569C176.837 43.7797 176.177 43.583 175.496 43.3665C174.836 43.15 174.227 42.8745 173.67 42.5398C173.114 42.1856 172.66 41.7232 172.309 41.1524C171.958 40.5817 171.783 39.8633 171.783 38.9975C171.783 38.0134 172.071 37.177 172.649 36.4882C173.227 35.7994 173.97 35.2681 174.877 34.8941C175.806 34.5202 176.775 34.3333 177.786 34.3333C178.426 34.3333 179.096 34.4119 179.798 34.5694C180.499 34.7072 181.17 34.9433 181.81 35.2779C182.449 35.5927 182.986 36.0159 183.419 36.5472C183.645 36.8424 183.78 37.1967 183.821 37.61C183.862 38.0233 183.666 38.3972 183.233 38.7318C182.924 38.9679 182.563 39.0762 182.15 39.0565C181.738 39.0171 181.397 38.8794 181.129 38.6432C180.778 38.2102 180.304 37.8658 179.705 37.61C179.127 37.3542 178.457 37.2262 177.694 37.2262C177.384 37.2262 177.044 37.2656 176.672 37.3443C176.322 37.4033 176.012 37.551 175.744 37.7871C175.476 38.0036 175.342 38.3578 175.342 38.8498C175.342 39.3025 175.496 39.6666 175.806 39.9421C176.115 40.1979 176.528 40.4144 177.044 40.5916C177.58 40.749 178.148 40.9065 178.746 41.0639C179.365 41.2213 179.994 41.4083 180.634 41.6247C181.274 41.8413 181.861 42.1266 182.398 42.4808C182.934 42.8351 183.367 43.2976 183.697 43.8683C184.028 44.4193 184.192 45.1278 184.192 45.9938C184.192 46.9975 183.883 47.8536 183.264 48.562C182.645 49.2706 181.871 49.8117 180.943 50.1857C180.015 50.5401 179.065 50.7168 178.096 50.7168C176.879 50.7168 175.662 50.5204 174.444 50.1267C173.227 49.7132 172.216 48.995 171.411 47.9716Z" fill="#81818B"/>
</svg>
