<svg width="211" height="65" viewBox="0 0 211 65" fill="none" xmlns="http://www.w3.org/2000/svg">
<path d="M23.1739 45.3943L34.8335 40.3411L41.5445 44.1308L42.9002 56.564L34.6301 56.4979L35.8503 47.8539L34.4267 47.0561L27.4445 52.3753L23.1739 45.3943Z" fill="#81818B"/>
<path d="M42.2906 43.5985L52.5945 50.9783L56.6616 43.8645L48.3913 40.6066V39.0109L56.6616 35.6866L52.5945 28.6389L42.2906 36.019V43.5985Z" fill="#81818B"/>
<path d="M41.5445 35.4209L42.9002 22.9878L34.6301 23.1208L35.8503 31.7641L34.4267 32.5619L27.3767 27.243L23.1739 34.1576L34.8335 39.2107L41.5445 35.4209Z" fill="#81818B"/>
<path d="M84.2524 38.2858V49.934H88.7034V35.0895H82.2217V38.2858H84.2524Z" fill="#81818B"/>
<path d="M84.1133 33.0038C84.5213 33.4191 85.1429 33.6267 85.9771 33.6267C86.8124 33.6267 87.424 33.4191 87.813 33.0038C88.2215 32.5702 88.4252 32.0284 88.4252 31.3785C88.4252 30.7102 88.2215 30.1685 87.813 29.7532C87.424 29.3198 86.8124 29.103 85.9771 29.103C85.1429 29.103 84.5213 29.3198 84.1133 29.7532C83.7243 30.1685 83.5295 30.7102 83.5295 31.3785C83.5295 32.0284 83.7243 32.5702 84.1133 33.0038Z" fill="#81818B"/>
<path d="M68.7576 49.6087C70.0186 50.1684 71.5669 50.4486 73.4028 50.4486C75.128 50.4486 76.6111 50.1864 77.8543 49.6629C79.097 49.1393 80.0519 48.4078 80.7192 47.4686C81.4059 46.5115 81.7487 45.401 81.7487 44.1368C81.7487 42.9089 81.4248 41.8705 80.7754 41.0216C80.1443 40.1549 79.2639 39.4777 78.1325 38.9902C77.0012 38.4844 75.6934 38.1684 74.2097 38.0422L72.6521 37.9067C71.7249 37.8343 71.0571 37.5907 70.6492 37.1752C70.2407 36.7599 70.037 36.2722 70.037 35.7126C70.037 35.279 70.1489 34.8818 70.3704 34.5206C70.5935 34.1414 70.9269 33.8434 71.3721 33.6266C71.8362 33.4101 72.4016 33.3017 73.0694 33.3017C73.774 33.3017 74.3583 33.4279 74.8219 33.6809C74.9237 33.7344 75.0209 33.7915 75.1117 33.8521L75.1337 33.8672C75.1678 33.8901 75.2015 33.9139 75.234 33.9379C75.5159 34.1474 75.7401 34.3959 75.9071 34.6832C76.1475 35.0805 76.2688 35.5228 76.2688 36.0105H80.7192C80.7192 34.7101 80.4131 33.5815 79.8015 32.6245C79.1899 31.6493 78.3089 30.8999 77.1592 30.376C76.0273 29.8343 74.6644 29.5634 73.0694 29.5634C71.5485 29.5634 70.2318 29.8164 69.1188 30.3219C68.0063 30.8096 67.1348 31.5138 66.5043 32.4347C65.8916 33.3557 65.5856 34.4484 65.5856 35.7126C65.5856 37.4642 66.1888 38.8727 67.3942 39.9383C68.5996 41.0037 70.2134 41.6177 72.2347 41.7802L73.7651 41.9157C75.0072 42.0241 75.9071 42.2679 76.4636 42.6469C77.0195 43.0081 77.2978 43.5047 77.2978 44.1368C77.2978 44.4273 77.249 44.6997 77.1513 44.9543C77.0789 45.1433 76.9791 45.3222 76.8531 45.4913C76.5554 45.8703 76.1202 46.1683 75.5453 46.3854C74.9704 46.6019 74.2565 46.7102 73.4028 46.7102C72.4573 46.7102 71.6876 46.584 71.0944 46.3308C70.5006 46.0601 70.0559 45.7079 69.7583 45.2748C69.4805 44.8411 69.3419 44.3717 69.3419 43.8659H64.9183C64.9183 45.1481 65.2427 46.286 65.8916 47.2789C66.5411 48.2543 67.496 49.0311 68.7576 49.6087Z" fill="#81818B"/>
<path d="M98.6348 50.1233C97.095 50.1233 95.8528 49.943 94.9068 49.5815C93.9607 49.2025 93.2656 48.5792 92.8204 47.7125C92.3941 46.8275 92.1805 45.6359 92.1805 44.1368V38.2587H89.8715V35.0895H92.1805V31.0806H96.3253V35.0895H100.777V38.2587H96.3253V44.2996C96.3253 45.0038 96.5112 45.5455 96.8818 45.9245C97.2714 46.286 97.8184 46.4664 98.5235 46.4664H100.777V50.1233H98.6348Z" fill="#81818B"/>
<path fill-rule="evenodd" clip-rule="evenodd" d="M106.136 49.7984C107.137 50.2316 108.287 50.4486 109.585 50.4486C110.865 50.4486 111.997 50.2316 112.979 49.7984C113.962 49.3648 114.779 48.7599 115.427 47.9836C116.076 47.2068 116.513 46.3218 116.735 45.3289H112.646C112.46 45.7804 112.108 46.1594 111.589 46.4663C111.069 46.7733 110.401 46.9272 109.585 46.9272C109.08 46.9272 108.628 46.8686 108.23 46.7522C107.927 46.6637 107.656 46.5415 107.415 46.3854C106.859 46.0243 106.451 45.5182 106.191 44.8683C106.119 44.6832 106.058 44.4895 106.006 44.2878C105.953 44.0834 105.91 43.8708 105.878 43.6494H117.013V42.1865C117.013 40.8321 116.716 39.5861 116.123 38.4485C115.529 37.2925 114.667 36.3625 113.536 35.6583C112.423 34.9359 111.051 34.5747 109.418 34.5747C108.176 34.5747 107.063 34.7915 106.08 35.2249C105.116 35.6402 104.309 36.209 103.66 36.9314C103.011 37.6537 102.51 38.4756 102.157 39.3966C101.824 40.2993 101.657 41.2474 101.657 42.2407V42.7824C101.657 43.7397 101.824 44.6786 102.157 45.5997C102.51 46.5026 103.011 47.3241 103.66 48.0646C104.327 48.7872 105.152 49.3648 106.136 49.7984ZM105.955 40.9708C105.967 40.9135 105.98 40.857 105.994 40.8014C106.033 40.6483 106.077 40.5015 106.128 40.3613C106.157 40.2814 106.187 40.2035 106.22 40.1278C106.497 39.4596 106.906 38.954 107.443 38.611C107.644 38.4827 107.862 38.3784 108.096 38.2982C108.49 38.1636 108.931 38.0963 109.418 38.0963C110.179 38.0963 110.809 38.2679 111.31 38.611C111.829 38.9359 112.219 39.4145 112.479 40.0465C112.5 40.0975 112.52 40.1495 112.539 40.202C112.569 40.2858 112.598 40.3717 112.625 40.4598C112.664 40.5909 112.698 40.7266 112.728 40.8668C112.751 40.9702 112.769 41.076 112.786 41.1844H105.912C105.925 41.112 105.939 41.0409 105.955 40.9708Z" fill="#81818B"/>
<path d="M118.85 49.934V35.0895H122.383V38.8282C122.431 38.6059 122.486 38.3926 122.546 38.1881C122.599 38.0157 122.655 37.8495 122.717 37.6899C123.106 36.6785 123.69 35.9202 124.469 35.4144C125.248 34.8907 126.203 34.629 127.335 34.629H127.529C128.679 34.629 129.634 34.8907 130.395 35.4144C131.174 35.9202 131.758 36.6785 132.147 37.6899L132.178 37.7662L132.204 37.836C132.222 37.7867 132.24 37.7381 132.258 37.6899C132.666 36.6785 133.26 35.9202 134.039 35.4144C134.818 34.8907 135.773 34.629 136.905 34.629H137.099C138.249 34.629 139.213 34.8907 139.992 35.4144C140.79 35.9202 141.393 36.6785 141.8 37.6899C142.208 38.7012 142.413 39.9654 142.413 41.4823V49.934H137.961V41.2384C137.961 40.4258 137.739 39.7667 137.294 39.2611C136.867 38.7553 136.255 38.5025 135.458 38.5025C134.66 38.5025 134.03 38.7645 133.566 39.2881C133.103 39.7937 132.871 40.4709 132.871 41.3198V49.934H128.392V41.2384C128.392 40.4258 128.169 39.7667 127.724 39.2611C127.298 38.7553 126.694 38.5025 125.916 38.5025C125.1 38.5025 124.46 38.7645 123.996 39.2881C123.533 39.7937 123.301 40.4709 123.301 41.3198V49.934H118.85Z" fill="#81818B"/>
<path fill-rule="evenodd" clip-rule="evenodd" d="M154.303 47.0736V49.9341H157.835V40.8322C157.835 39.4597 157.557 38.3402 157.001 37.4732C156.444 36.5883 155.629 35.9293 154.553 35.4959C153.496 35.0625 152.188 34.8457 150.63 34.8457C150.293 34.8457 149.94 34.8492 149.573 34.8564C149.356 34.8608 149.133 34.8662 148.906 34.8728C148.293 34.8909 147.7 34.9179 147.125 34.9541L146.686 34.9829C146.46 34.9982 146.249 35.0132 146.049 35.0285C145.9 35.0398 145.757 35.0512 145.623 35.0625V38.7195C146.198 38.6832 146.838 38.6471 147.543 38.6111C147.74 38.601 147.935 38.5916 148.129 38.5829C148.409 38.5703 148.685 38.5593 148.959 38.5498C149.175 38.5421 149.389 38.5353 149.601 38.5297C150.269 38.5116 150.807 38.5026 151.215 38.5026C152.03 38.5026 152.624 38.6922 152.995 39.0715C153.366 39.4507 153.551 40.0196 153.551 40.7782V40.8322H150.797C149.444 40.8322 148.247 41.0038 147.208 41.347C146.17 41.672 145.363 42.1866 144.789 42.8909C144.213 43.5773 143.926 44.4621 143.926 45.5456C143.926 46.5389 144.158 47.3967 144.621 48.1193C145.085 48.8231 145.725 49.3649 146.541 49.7439C147.376 50.1234 148.34 50.3131 149.434 50.3131C150.491 50.3131 151.382 50.1234 152.105 49.7439C152.847 49.3649 153.422 48.8231 153.83 48.1193C153.902 48.0003 153.968 47.8772 154.031 47.7493C154.119 47.5685 154.198 47.3783 154.267 47.1787L154.303 47.0736ZM153.551 44.4351V43.2431H150.769C149.99 43.2431 149.388 43.4327 148.961 43.812C148.553 44.1732 148.349 44.6698 148.349 45.3018C148.349 45.5993 148.4 45.8696 148.501 46.1134C148.604 46.3577 148.757 46.5747 148.961 46.7644C149.388 47.126 149.99 47.3063 150.769 47.3063C150.917 47.3063 151.061 47.2991 151.199 47.2853C151.312 47.2736 151.422 47.2571 151.529 47.236C151.732 47.1958 151.925 47.1376 152.105 47.0624C152.513 46.8821 152.847 46.5841 153.106 46.1684C153.366 45.7532 153.515 45.1751 153.551 44.4351Z" fill="#81818B"/>
<path d="M160.499 49.9341V35.0895H164.033V39.9892C164.202 38.5905 164.628 37.4627 165.312 36.6065C166.24 35.4689 167.574 34.9 169.318 34.9H169.903V38.6381H168.79C167.566 38.6381 166.62 38.9631 165.952 39.6132C165.284 40.2453 164.95 41.1664 164.95 42.3761V49.9341H160.499Z" fill="#81818B"/>
<path d="M175.547 42.9993H177.021L181.834 49.9341H186.841L180.739 41.4174L185.756 35.0896H181.083L175.547 42.1478V30.1595H171.096V49.9341H175.547V42.9993Z" fill="#81818B"/>
</svg>
