<svg width="211" height="65" viewBox="0 0 211 65" fill="none" xmlns="http://www.w3.org/2000/svg">
<path d="M71.2482 30.8004C72.8358 30.8004 74.2097 31.0559 75.3705 31.567C76.548 32.0781 77.4521 32.8034 78.0837 33.7432C78.7152 34.6829 79.0313 35.7957 79.0313 37.0816C79.0313 38.351 78.7152 39.4638 78.0837 40.42C77.4521 41.3597 76.548 42.0851 75.3705 42.5964C74.2097 43.0907 72.8358 43.3381 71.2482 43.3381H67.6388V48.1109H63.4918V30.8004H71.2482ZM71.0182 40.0738C72.2635 40.0738 73.2111 39.8183 73.8595 39.3072C74.5084 38.7796 74.8323 38.0378 74.8323 37.0816C74.8323 36.1089 74.5084 35.367 73.8595 34.856C73.2111 34.3284 72.2635 34.0647 71.0182 34.0647H67.6388V40.0738H71.0182Z" fill="#81818B"/>
<path d="M84.2451 36.5623C84.7223 35.9194 85.3628 35.433 86.1645 35.1033C86.984 34.7736 87.9222 34.6088 88.9806 34.6088V38.1697C88.5369 38.1368 88.2382 38.1203 88.0844 38.1203C86.9409 38.1203 86.0453 38.4335 85.3969 39.06C84.748 39.6699 84.4236 40.5932 84.4236 41.8296V48.111H80.4304V34.8066H84.2451V36.5623Z" fill="#81818B"/>
<path d="M96.5038 48.3085C95.0533 48.3085 93.7476 48.0203 92.5873 47.4431C91.4439 46.8498 90.5477 46.0334 89.8993 44.9948C89.251 43.9562 88.9265 42.7774 88.9265 41.4587C88.9265 40.1398 89.251 38.9611 89.8993 37.9224C90.5477 36.8838 91.4439 36.076 92.5873 35.499C93.7476 34.9055 95.0533 34.6088 96.5038 34.6088C97.9544 34.6088 99.2517 34.9055 100.395 35.499C101.539 36.076 102.435 36.8838 103.084 37.9224C103.732 38.9611 104.056 40.1398 104.056 41.4587C104.056 42.7774 103.732 43.9562 103.084 44.9948C102.435 46.0334 101.539 46.8498 100.395 47.4431C99.2517 48.0203 97.9544 48.3085 96.5038 48.3085ZM96.5038 45.1432C97.5281 45.1432 98.3644 44.8138 99.0128 44.1541C99.6785 43.4783 100.011 42.5799 100.011 41.4587C100.011 40.3377 99.6785 39.4474 99.0128 38.7879C98.3644 38.112 97.5281 37.774 96.5038 37.774C95.4801 37.774 94.6354 38.112 93.9697 38.7879C93.304 39.4474 92.9711 40.3377 92.9711 41.4587C92.9711 42.5799 93.304 43.4783 93.9697 44.1541C94.6354 44.8138 95.4801 45.1432 96.5038 45.1432Z" fill="#81818B"/>
<path d="M122.163 30.8004V48.1109H118.758L109.823 37.6009V48.1109H105.727V30.8004H109.157L118.067 41.3103V30.8004H122.163Z" fill="#81818B"/>
<path d="M130.396 34.6088C132.529 34.6088 134.168 35.1033 135.311 36.0925C136.455 37.0652 137.026 38.5407 137.026 40.519V48.111H133.289V46.4539C132.538 47.6905 131.139 48.3085 129.091 48.3085C128.032 48.3085 127.11 48.1357 126.325 47.7894C125.558 47.4431 124.969 46.9652 124.559 46.355C124.15 45.7452 123.945 45.0525 123.945 44.2778C123.945 43.0413 124.423 42.0687 125.378 41.3598C126.351 40.6509 127.845 40.2965 129.859 40.2965H133.033C133.033 39.4556 132.769 38.8127 132.239 38.3676C131.71 37.9059 130.917 37.6751 129.859 37.6751C129.125 37.6751 128.399 37.7905 127.683 38.0214C126.983 38.2357 126.385 38.5325 125.89 38.9116L124.457 36.2161C125.208 35.7051 126.103 35.3094 127.144 35.0291C128.203 34.7489 129.287 34.6088 130.396 34.6088ZM130.089 45.7122C130.772 45.7122 131.377 45.5638 131.906 45.2669C132.435 44.9536 132.811 44.5004 133.033 43.9067V42.547H130.294C128.655 42.547 127.836 43.066 127.836 44.1047C127.836 44.5994 128.032 44.9948 128.425 45.2917C128.834 45.572 129.389 45.7122 130.089 45.7122Z" fill="#81818B"/>
<path d="M148.244 47.4678C147.852 47.7481 147.365 47.9625 146.785 48.1109C146.222 48.2425 145.624 48.3084 144.993 48.3084C143.355 48.3084 142.083 47.9048 141.179 47.0971C140.291 46.289 139.847 45.102 139.847 43.536V38.0708H137.723V35.1033H139.847V31.8638H143.841V35.1033H147.271V38.0708H143.841V43.4865C143.841 44.0469 143.986 44.4839 144.276 44.7972C144.583 45.0937 145.01 45.2421 145.556 45.2421C146.188 45.2421 146.725 45.0772 147.169 44.7478L148.244 47.4678Z" fill="#81818B"/>
<path d="M163.082 34.8066V48.111H159.293V46.5282C158.764 47.105 158.132 47.5503 157.398 47.8637C156.664 48.1605 155.871 48.3085 155.017 48.3085C153.208 48.3085 151.775 47.806 150.716 46.8003C149.658 45.7947 149.129 44.3026 149.129 42.3244V34.8066H153.123V41.7554C153.123 43.8985 154.053 44.9701 155.913 44.9701C156.869 44.9701 157.637 44.6737 158.218 44.0799C158.797 43.4701 159.088 42.5718 159.088 41.3846V34.8066H163.082Z" fill="#81818B"/>
<path d="M169.316 36.5623C169.793 35.9194 170.434 35.433 171.236 35.1033C172.055 34.7736 172.994 34.6088 174.052 34.6088V38.1697C173.608 38.1368 173.309 38.1203 173.156 38.1203C172.012 38.1203 171.116 38.4335 170.468 39.06C169.819 39.6699 169.495 40.5932 169.495 41.8296V48.111H165.501V34.8066H169.316V36.5623Z" fill="#81818B"/>
<path d="M188.513 41.5084C188.513 41.5574 188.488 41.9037 188.436 42.547H178.017C178.204 43.3712 178.648 44.0222 179.348 44.5004C180.048 44.9783 180.918 45.2174 181.959 45.2174C182.676 45.2174 183.307 45.1185 183.853 44.9206C184.417 44.7066 184.937 44.3768 185.415 43.9315L187.54 46.1571C186.243 47.5915 184.348 48.3085 181.856 48.3085C180.304 48.3085 178.93 48.0203 177.735 47.4431C176.54 46.8498 175.619 46.0334 174.97 44.9948C174.321 43.9562 173.997 42.7774 173.997 41.4587C173.997 40.1563 174.313 38.9858 174.945 37.9472C175.593 36.892 176.472 36.076 177.581 35.499C178.708 34.9055 179.962 34.6088 181.345 34.6088C182.693 34.6088 183.913 34.889 185.006 35.4495C186.098 36.01 186.951 36.8179 187.566 37.873C188.197 38.9116 188.513 40.1233 188.513 41.5084ZM181.37 37.5268C180.466 37.5268 179.706 37.774 179.092 38.2686C178.477 38.7633 178.102 39.4392 177.965 40.2965H184.75C184.613 39.4556 184.237 38.7879 183.623 38.2934C183.009 37.7823 182.258 37.5268 181.37 37.5268Z" fill="#81818B"/>
<path fill-rule="evenodd" clip-rule="evenodd" d="M40.748 21.1602C40.1395 20.8201 39.3893 20.8201 38.7808 21.1602C34.4588 23.5752 31.5437 28.0939 31.5437 33.2725C31.5437 34.0105 31.603 34.7352 31.717 35.4423C28.7418 34.4663 25.5203 34.8214 22.889 36.286C22.2799 36.6251 21.9048 37.2526 21.9054 37.9317C21.9085 41.5141 23.835 45.0055 27.2853 46.9297C28.978 47.8739 30.8256 48.3225 32.6479 48.3233C32.3707 49.0824 32.2198 49.8987 32.2198 50.7493C32.2198 54.7743 35.5976 58.0366 39.7641 58.0366C43.9309 58.0366 47.3084 54.7743 47.3084 50.7493C47.3084 49.8966 47.1568 49.0786 46.8785 48.3184C48.5923 48.266 50.3184 47.8166 51.9079 46.9297C55.3586 45.0055 57.2848 41.5141 57.2874 37.9318C57.2885 37.2528 56.9131 36.6252 56.3041 36.2862C53.7767 34.8792 50.7042 34.4961 47.8291 35.3333C47.932 34.6608 47.9849 33.9727 47.9849 33.2725C47.9849 28.0939 45.0701 23.5752 40.748 21.1602ZM35.4724 33.2725C35.4724 29.9096 37.1581 26.9253 39.7644 25.0677C42.3707 26.9253 44.0564 29.9096 44.0564 33.2725C44.0564 36.6352 42.3707 39.6196 39.7644 41.4771C37.1581 39.6196 35.4724 36.6352 35.4724 33.2725ZM47.5115 39.5744C49.3256 38.5626 51.4217 38.445 53.2528 39.0851C52.9115 40.937 51.7576 42.6315 49.9436 43.6433C48.1296 44.655 46.0334 44.7725 44.2024 44.1327C44.5438 42.2806 45.6975 40.5861 47.5115 39.5744ZM25.9405 39.085C27.7715 38.4448 29.8676 38.5625 31.6816 39.5742C33.4958 40.5859 34.6493 42.2806 34.9909 44.1322C33.1598 44.7725 31.0638 44.655 29.2497 43.6433C27.4356 42.6315 26.2821 40.9368 25.9405 39.085ZM36.1485 50.7493C36.1485 48.8205 37.7673 47.2567 39.7641 47.2567C41.7609 47.2567 43.3798 48.8205 43.3798 50.7493C43.3798 52.678 41.7609 54.2419 39.7641 54.2419C37.7673 54.2419 36.1485 52.678 36.1485 50.7493Z" fill="#81818B"/>
</svg>
