<svg width="183" height="65" viewBox="0 0 183 65" fill="none" xmlns="http://www.w3.org/2000/svg">
<path fill-rule="evenodd" clip-rule="evenodd" d="M29.5953 31.2361C32.3357 27.7339 36.7239 25.4649 41.6698 25.4649C46.6448 25.4649 51.0553 27.7606 53.7924 31.298C53.6759 31.4118 53.5698 31.5298 53.4737 31.6476C52.9724 32.2645 52.5951 33.059 52.293 33.8659C51.6844 35.4887 51.2202 37.6085 50.7904 39.5935L50.7522 39.7719C50.3234 41.7533 49.9248 43.5959 49.4428 44.9638C49.2263 45.5783 49.021 46.0128 48.8389 46.291C48.6489 46.0105 48.4334 45.5708 48.2052 44.9475C47.6898 43.5403 47.2562 41.6263 46.7967 39.5827L46.7818 39.5157V39.5157C46.3401 37.5527 45.8717 35.4699 45.2876 33.8756C44.9941 33.0747 44.6341 32.2881 44.1632 31.6769C43.701 31.0772 42.9317 30.4003 41.8065 30.4003C40.6884 30.4003 39.9156 31.0698 39.4467 31.6629C38.9667 32.2701 38.5924 33.0534 38.2842 33.8547C37.6633 35.4682 37.1557 37.5789 36.6833 39.5666L36.6346 39.7719C36.1668 41.7409 35.7295 43.5818 35.2331 44.9523C35.0437 45.4757 34.8648 45.8739 34.703 46.1583C34.5448 45.8752 34.3704 45.4797 34.1861 44.9607C33.7099 43.6194 33.2928 41.8301 32.8447 39.9083L32.7663 39.5719C32.3021 37.583 31.7985 35.4685 31.1688 33.85C30.8559 33.0457 30.4733 32.2584 29.9781 31.6484C29.8659 31.5103 29.7385 31.3701 29.5953 31.2361ZM27.9368 33.9253C28.0673 34.1701 28.2054 34.4736 28.3481 34.8406C28.8932 36.2416 29.3549 38.1533 29.8304 40.1905L29.923 40.5875C30.3559 42.4464 30.8062 44.38 31.3367 45.8739C31.6188 46.6684 31.9595 47.4466 32.3977 48.0514C32.8121 48.6235 33.5555 49.3623 34.6986 49.3623C35.8383 49.3623 36.5835 48.627 37.0007 48.0576C37.4426 47.4542 37.7889 46.6769 38.0767 45.8818C38.6285 44.3584 39.0983 42.3794 39.5479 40.4855V40.4854L39.6167 40.1959C40.1011 38.1574 40.5675 36.2419 41.1086 34.8358C41.3592 34.1843 41.5939 33.7305 41.7981 33.449C41.9918 33.7281 42.213 34.1747 42.4476 34.815C42.9631 36.2222 43.3962 38.1361 43.8559 40.1798L43.871 40.2467C44.3125 42.2098 44.7809 44.2926 45.365 45.8867C45.6585 46.6879 46.0185 47.4745 46.4894 48.0855C46.9517 48.6854 47.7209 49.3623 48.8459 49.3623C49.9769 49.3623 50.7434 48.6792 51.2001 48.074C51.6639 47.4599 52.0127 46.6707 52.2944 45.8708C52.8359 44.3344 53.2664 42.3408 53.6769 40.4444V40.4443L53.7357 40.169C54.1778 38.1278 54.6019 36.2214 55.1259 34.8246C55.2393 34.5208 55.3511 34.2617 55.4577 34.0441C56.2604 35.7921 56.7056 37.7223 56.7056 39.7513C56.7056 47.6413 49.9741 54.0377 41.6698 54.0377C33.3656 54.0377 26.6338 47.6413 26.6338 39.7513C26.6338 37.6762 27.0994 35.7044 27.9368 33.9253ZM41.6698 22.6077C31.7048 22.6077 23.6266 30.2831 23.6266 39.7513C23.6266 49.2194 31.7048 56.8948 41.6698 56.8948C51.635 56.8948 59.7128 49.2194 59.7128 39.7513C59.7128 30.2831 51.635 22.6077 41.6698 22.6077ZM42.0136 33.2098C42.0136 33.2101 42.01 33.2128 42.003 33.2167C42.01 33.2114 42.0136 33.2095 42.0136 33.2098ZM41.5979 33.2117C41.5909 33.2077 41.5875 33.2049 41.5875 33.2045C41.5875 33.2042 41.591 33.2062 41.5979 33.2117ZM48.6173 46.5623C48.6173 46.5623 48.6205 46.5592 48.627 46.5552C48.6205 46.5605 48.6173 46.5627 48.6173 46.5623ZM49.0545 46.5508C49.0615 46.5548 49.0652 46.5574 49.0652 46.5579C49.0652 46.5583 49.0615 46.5561 49.0545 46.5508ZM34.3904 46.5879C34.3903 46.5875 34.3947 46.5835 34.4034 46.5778C34.3948 46.5853 34.3904 46.5884 34.3904 46.5879ZM34.9994 46.5804C35.008 46.5862 35.0123 46.5901 35.0123 46.5906C35.0123 46.591 35.0079 46.5884 34.9994 46.5804Z" fill="#81818B"/>
<path d="M69.6758 49.9007L65.3004 35.6801H69.1329L71.728 45.9154L74.7452 35.6801H79.0302L82.0479 45.9154L84.6729 35.6801H88.5054L84.0996 49.9007H80.0865L76.8877 39.2639L73.6894 49.9007H69.6758Z" fill="#81818B"/>
<path d="M94.1287 50.2449C92.8414 50.2449 91.7851 50.0533 90.9604 49.6711C90.1361 49.2698 89.5224 48.7442 89.1197 48.0943C88.7176 47.4444 88.5165 46.7277 88.5165 45.9442C88.5165 44.6254 89.0593 43.5549 90.1456 42.733C91.2318 41.9112 92.8619 41.5002 95.0344 41.5002H98.8364V41.1562C98.8364 40.1813 98.5445 39.4646 97.9612 39.0059C97.378 38.5471 96.6535 38.3178 95.7888 38.3178C95.0039 38.3178 94.3198 38.4993 93.7366 38.8625C93.1533 39.2066 92.791 39.7226 92.6503 40.4107H88.8782C88.979 39.3786 89.3413 38.4802 89.9644 37.7157C90.6086 36.9512 91.4334 36.3682 92.4388 35.9668C93.4452 35.5463 94.5713 35.3361 95.8187 35.3361C97.9513 35.3361 99.6307 35.8425 100.858 36.8556C102.085 37.8686 102.699 39.3022 102.699 41.1562V49.9007H99.4092L99.0475 47.6072C98.6049 48.3717 97.9812 49.0022 97.1769 49.4995C96.392 49.9963 95.3761 50.2449 94.1287 50.2449ZM95.0039 47.3776C96.1106 47.3776 96.9653 47.0334 97.5685 46.3455C98.1922 45.6575 98.5849 44.8067 98.7461 43.7938H95.4565C94.4306 43.7938 93.6967 43.9754 93.2536 44.3386C92.8115 44.6824 92.59 45.1129 92.59 45.6287C92.59 46.1831 92.8115 46.6131 93.2536 46.9188C93.6967 47.2245 94.2794 47.3776 95.0039 47.3776Z" fill="#81818B"/>
<path d="M108.779 49.9007L103.287 35.6801H107.33L111.132 46.4317L114.934 35.6801H118.978L113.456 49.9007H108.779Z" fill="#81818B"/>
<path d="M126.742 50.2449C125.234 50.2449 123.896 49.9388 122.729 49.3273C121.563 48.7155 120.647 47.8554 119.983 46.7467C119.319 45.6385 118.988 44.3577 118.988 42.905C118.988 41.4333 119.31 40.124 119.953 38.9772C120.617 37.8304 121.522 36.9416 122.669 36.3108C123.835 35.661 125.203 35.3361 126.773 35.3361C128.241 35.3361 129.539 35.6419 130.665 36.2535C131.792 36.8651 132.667 37.7061 133.29 38.7765C133.934 39.8277 134.256 41.0032 134.256 42.303C134.256 42.5132 134.246 42.733 134.226 42.9624C134.226 43.1918 134.216 43.4307 134.196 43.6791H122.82C122.9 44.7877 123.303 45.6575 124.027 46.2884C124.771 46.9188 125.666 47.2343 126.713 47.2343C127.497 47.2343 128.151 47.0719 128.674 46.7467C129.216 46.403 129.619 45.9632 129.881 45.4279H133.803C133.522 46.3264 133.049 47.1485 132.385 47.8939C131.741 48.6199 130.937 49.1933 129.971 49.614C129.026 50.0343 127.949 50.2449 126.742 50.2449ZM126.773 38.3178C125.828 38.3178 124.992 38.5758 124.268 39.0919C123.544 39.5888 123.081 40.3534 122.88 41.3855H130.333C130.273 40.4489 129.911 39.7035 129.247 39.1492C128.583 38.5949 127.759 38.3178 126.773 38.3178Z" fill="#81818B"/>
<path d="M136.298 49.9007V29.2578H140.16V49.9007H136.298Z" fill="#81818B"/>
<path d="M150.171 50.2449C148.663 50.2449 147.325 49.9388 146.158 49.3273C144.992 48.7155 144.077 47.8554 143.413 46.7467C142.748 45.6385 142.417 44.3577 142.417 42.905C142.417 41.4333 142.739 40.124 143.382 38.9772C144.046 37.8304 144.951 36.9416 146.098 36.3108C147.265 35.661 148.633 35.3361 150.202 35.3361C151.67 35.3361 152.968 35.6419 154.095 36.2535C155.221 36.8651 156.097 37.7061 156.72 38.7765C157.363 39.8277 157.686 41.0032 157.686 42.303C157.686 42.5132 157.675 42.733 157.655 42.9624C157.655 43.1918 157.645 43.4307 157.625 43.6791H146.249C146.329 44.7877 146.732 45.6575 147.456 46.2884C148.2 46.9188 149.096 47.2343 150.142 47.2343C150.926 47.2343 151.58 47.0719 152.103 46.7467C152.646 46.403 153.048 45.9632 153.31 45.4279H157.233C156.951 46.3264 156.478 47.1485 155.815 47.8939C155.17 48.6199 154.366 49.1933 153.4 49.614C152.455 50.0343 151.379 50.2449 150.171 50.2449ZM150.202 38.3178C149.257 38.3178 148.422 38.5758 147.697 39.0919C146.973 39.5888 146.511 40.3534 146.309 41.3855H153.762C153.702 40.4489 153.34 39.7035 152.676 39.1492C152.012 38.5949 151.188 38.3178 150.202 38.3178Z" fill="#81818B"/>
<path d="M165.913 50.2449C164.585 50.2449 163.418 50.044 162.413 49.6428C161.406 49.222 160.602 48.6487 159.998 47.9222C159.395 47.1962 159.033 46.3552 158.912 45.3996H162.804C162.925 45.9535 163.248 46.4317 163.77 46.833C164.313 47.2152 165.007 47.4064 165.852 47.4064C166.697 47.4064 167.311 47.244 167.693 46.9188C168.095 46.5941 168.296 46.2212 168.296 45.8008C168.296 45.189 168.015 44.778 167.452 44.5678C166.888 44.3386 166.104 44.1188 165.098 43.9085C164.455 43.7747 163.801 43.6123 163.137 43.4211C162.473 43.23 161.859 42.991 161.296 42.7044C160.753 42.3985 160.31 42.0163 159.968 41.5575C159.626 41.0797 159.455 40.4967 159.455 39.8086C159.455 38.5471 159.978 37.4864 161.025 36.6262C162.09 35.7661 163.579 35.3361 165.49 35.3361C167.261 35.3361 168.669 35.7279 169.715 36.5115C170.781 37.2952 171.414 38.3751 171.616 39.7513H167.965C167.743 38.7001 166.908 38.1744 165.46 38.1744C164.736 38.1744 164.173 38.3082 163.77 38.5758C163.388 38.8434 163.197 39.1779 163.197 39.5793C163.197 39.9998 163.489 40.3343 164.072 40.5828C164.656 40.8312 165.43 41.0606 166.395 41.2709C167.441 41.5002 168.397 41.7582 169.262 42.0449C170.147 42.3125 170.851 42.7235 171.375 43.2778C171.897 43.8129 172.159 44.5869 172.159 45.6C172.179 46.4795 171.937 47.2723 171.435 47.9797C170.932 48.6867 170.208 49.2411 169.262 49.6428C168.317 50.044 167.2 50.2449 165.913 50.2449Z" fill="#81818B"/>
<path d="M180.559 50.2449C179.232 50.2449 178.065 50.044 177.059 49.6428C176.053 49.222 175.249 48.6487 174.645 47.9222C174.042 47.1962 173.679 46.3552 173.559 45.3996H177.451C177.572 45.9535 177.894 46.4317 178.417 46.833C178.96 47.2152 179.654 47.4064 180.499 47.4064C181.344 47.4064 181.958 47.244 182.34 46.9188C182.742 46.5941 182.943 46.2212 182.943 45.8008C182.943 45.189 182.662 44.778 182.098 44.5678C181.535 44.3386 180.751 44.1188 179.745 43.9085C179.101 43.7747 178.447 43.6123 177.783 43.4211C177.12 43.23 176.506 42.991 175.943 42.7044C175.4 42.3985 174.957 42.0163 174.615 41.5575C174.273 41.0797 174.102 40.4967 174.102 39.8086C174.102 38.5471 174.625 37.4864 175.671 36.6262C176.737 35.7661 178.226 35.3361 180.137 35.3361C181.907 35.3361 183.315 35.7279 184.361 36.5115C185.427 37.2952 186.061 38.3751 186.263 39.7513H182.611C182.39 38.7001 181.555 38.1744 180.107 38.1744C179.382 38.1744 178.819 38.3082 178.417 38.5758C178.035 38.8434 177.844 39.1779 177.844 39.5793C177.844 39.9998 178.135 40.3343 178.719 40.5828C179.302 40.8312 180.076 41.0606 181.042 41.2709C182.088 41.5002 183.044 41.7582 183.909 42.0449C184.794 42.3125 185.498 42.7235 186.021 43.2778C186.544 43.8129 186.806 44.5869 186.806 45.6C186.826 46.4795 186.584 47.2723 186.081 47.9797C185.578 48.6867 184.854 49.2411 183.909 49.6428C182.963 50.044 181.847 50.2449 180.559 50.2449Z" fill="#81818B"/>
</svg>
